<?xml version="1.0" encoding="utf-8"?>
<!-- Generator: Adobe Illustrator 25.2.1, SVG Export Plug-In . SVG Version: 6.00 Build 0)  -->
<svg version="1.1" id="Capa_1" xmlns="http://www.w3.org/2000/svg" xmlns:xlink="http://www.w3.org/1999/xlink" x="0px" y="0px"
	 viewBox="0 0 512 512" style="enable-background:new 0 0 512 512;" xml:space="preserve">
<style type="text/css">
	.st0{fill:#FFFFFF;}
</style>
<g>
	<path class="st0" d="M301.2,256L502.6,54.6c12.5-12.5,12.5-32.8,0-45.3c-12.5-12.5-32.8-12.5-45.3,0l0,0L256,210.8L54.6,9.4
		C42.1-3.1,21.9-3.1,9.4,9.4s-12.5,32.8,0,45.3L210.8,256L9.4,457.4c-12.5,12.5-12.5,32.8,0,45.3s32.8,12.5,45.3,0L256,301.2
		l201.4,201.4c12.5,12.5,32.8,12.5,45.3,0c12.5-12.5,12.5-32.8,0-45.3L301.2,256z"/>
</g>
</svg>
