<?xml version="1.0" encoding="utf-8"?>
<!-- Generator: Adobe Illustrator 25.2.1, SVG Export Plug-In . SVG Version: 6.00 Build 0)  -->
<svg version="1.1" id="Layer_1" xmlns="http://www.w3.org/2000/svg" xmlns:xlink="http://www.w3.org/1999/xlink" x="0px" y="0px"
	 viewBox="0 0 85 85" style="enable-background:new 0 0 85 85;" xml:space="preserve">
<style type="text/css">
	.st0{fill:#FFFFFF;}
</style>
<g>
	<path class="st0" d="M11.2,11.2v62.7h62.7V11.2H11.2z M17.2,17.2h50.7v8.6L25.8,67.9h-8.6V17.2z M34.3,67.9l33.6-33.6v33.6H34.3z"
		/>
	<path class="st0" d="M32.8,43.6c5.9,0,10.8-4.8,10.8-10.8S38.7,22,32.8,22S22,26.8,22,32.8S26.8,43.6,32.8,43.6z M32.8,28
		c2.6,0,4.8,2.1,4.8,4.8s-2.1,4.8-4.8,4.8S28,35.4,28,32.8S30.1,28,32.8,28z"/>
</g>
</svg>
