<?xml version="1.0" encoding="utf-8"?>
<!-- Generator: Adobe Illustrator 25.2.1, SVG Export Plug-In . SVG Version: 6.00 Build 0)  -->
<svg version="1.1" id="Layer_1" xmlns="http://www.w3.org/2000/svg" xmlns:xlink="http://www.w3.org/1999/xlink" x="0px" y="0px"
	 viewBox="0 0 85 85" style="enable-background:new 0 0 85 85;" xml:space="preserve">
<style type="text/css">
	.st0{fill:#FFFFFF;}
</style>
<g>
	<path class="st0" d="M9.9,65.6l17-46.7h5.9l16.9,46.7h-6.4l-4.7-13.1H20.4l-4.7,13.1H9.9z M29.3,27l-7.1,20.2h14.5L29.5,27H29.3z"
		/>
	<path class="st0" d="M60.4,66.2c-3.2,0-5.8-0.8-7.8-2.5s-2.9-4.1-2.9-7.3c0-5.8,3.5-9.2,10.4-10.1l9.2-1.1V42
		c0-2.6-0.6-4.3-1.8-5.2c-1.2-0.9-3.4-1.3-6.6-1.3c-2.3,0-5,0.3-8.3,1v-4.2c3.3-1.3,6.8-1.9,10.6-1.9c8,0,12,3.4,12,10.2v25h-4.7
		l-0.6-2.9h-0.3C67.3,65,64.3,66.2,60.4,66.2z M61.9,61.6c3.2,0,5.7-0.8,7.4-2.4v-9.5l-7.6,0.8c-2,0.2-3.5,0.8-4.5,1.7
		c-0.9,0.9-1.4,2.2-1.4,4.1c0,1.8,0.5,3.1,1.6,4C58.5,61.2,60,61.6,61.9,61.6z"/>
</g>
</svg>
