<?xml version="1.0" encoding="utf-8"?>
<!-- Generator: Adobe Illustrator 25.2.1, SVG Export Plug-In . SVG Version: 6.00 Build 0)  -->
<svg version="1.1" id="Layer_1" xmlns="http://www.w3.org/2000/svg" xmlns:xlink="http://www.w3.org/1999/xlink" x="0px" y="0px"
	 viewBox="0 0 256 256" style="enable-background:new 0 0 256 256;" xml:space="preserve">
<g>
	<path d="M216,36H40c-2.2,0-4,1.8-4,4s1.8,4,4,4h176c2.2,0,4-1.8,4-4S218.2,36,216,36z"/>
	<path d="M192,68h-40c-6.6,0-12,5.4-12,12v96c0,6.6,5.4,12,12,12h40c6.6,0,12-5.4,12-12V80C204,73.4,198.6,68,192,68z M196,176
		c0,2.2-1.8,4-4,4h-40c-2.2,0-4-1.8-4-4V80c0-2.2,1.8-4,4-4h40c2.2,0,4,1.8,4,4V176z"/>
	<path d="M104,68H64c-6.6,0-12,5.4-12,12v136c0,6.6,5.4,12,12,12h40c6.6,0,12-5.4,12-12V80C116,73.4,110.6,68,104,68z M108,216
		c0,2.2-1.8,4-4,4H64c-2.2,0-4-1.8-4-4V80c0-2.2,1.8-4,4-4h40c2.2,0,4,1.8,4,4V216z"/>
</g>
</svg>
