<?xml version="1.0" encoding="utf-8"?>
<!-- Generator: Adobe Illustrator 25.2.1, SVG Export Plug-In . SVG Version: 6.00 Build 0)  -->
<svg version="1.1" id="Layer_1" xmlns="http://www.w3.org/2000/svg" xmlns:xlink="http://www.w3.org/1999/xlink" x="0px" y="0px"
	 viewBox="0 0 176 22.677" style="enable-background:new 0 0 176 22.677;" xml:space="preserve">
<g>
	<path d="M30.087,1.314c-3.456,0-6.378,1.448-8.22,3.798c-1.842-2.349-4.764-3.798-8.219-3.798c-5.926,0-10.307,4.239-10.307,10.024
		s4.381,10.025,10.307,10.025c3.456,0,6.377-1.449,8.219-3.798c1.842,2.349,4.764,3.798,8.22,3.798
		c5.926,0,10.306-4.24,10.306-10.025S36.013,1.314,30.087,1.314z M13.648,17.522c-3.467,0-6.043-2.6-6.043-6.184
		c0-3.606,2.576-6.184,6.043-6.184c3.466,0,6.043,2.577,6.043,6.184C19.691,14.922,17.114,17.522,13.648,17.522z M30.087,17.522
		c-3.467,0-6.043-2.6-6.043-6.184c0-3.606,2.576-6.184,6.043-6.184c3.466,0,6.043,2.577,6.043,6.184
		C36.13,14.922,33.553,17.522,30.087,17.522z"/>
	<path d="M54.536,1.806h-7.401v19.089h7.401c6.324,0,10.235-3.889,10.235-9.533S60.86,1.806,54.536,1.806z M54.606,17.123h-3.209
		V5.576h3.209c3.653,0,5.902,2.108,5.902,5.785C60.508,15.039,58.259,17.123,54.606,17.123z"/>
	<polygon points="76.267,13.095 85.378,13.095 85.378,9.395 76.267,9.395 76.267,5.506 86.198,5.506 86.198,1.806 72.004,1.806 
		72.004,20.895 86.409,20.895 86.409,17.194 76.267,17.194 	"/>
	<path d="M103.2,9.534C99.475,8.762,98,8.27,98,6.841c0-1.147,1.101-1.943,3.092-1.943c2.038,0,3.279,1.007,3.537,2.67h4.403
		c-0.211-3.631-3.396-6.23-7.659-6.23c-4.31,0-7.729,2.062-7.729,5.504c0,3.584,2.249,5.294,6.395,6.066
		c3.396,0.633,4.685,1.241,4.685,2.764c0,1.242-1.288,2.108-3.021,2.108c-2.437,0-4.029-1.218-4.263-3.045h-4.381
		c0.188,4.075,3.631,6.629,8.339,6.629c4.263,0,7.706-2.226,7.706-5.88C109.102,12.626,107.603,10.448,103.2,9.534z"/>
	<rect x="116.289" y="1.806" width="4.263" height="19.089"/>
	<path d="M137.718,13.821h5.832c-0.445,1.873-2.506,3.7-5.48,3.7c-3.467,0-6.043-2.6-6.043-6.184c0-3.56,2.576-6.113,6.043-6.113
		c2.318,0,4.122,1.078,4.918,2.483h4.685c-1.101-3.584-4.708-6.395-9.696-6.395c-5.879,0-10.213,4.239-10.213,10.024
		s4.334,10.025,10.213,10.025c5.785,0,10.118-4.24,10.118-10.025v-1.124h-10.376V13.821z"/>
	<polygon points="168.396,1.571 168.396,13.282 158.864,1.806 155.303,1.806 155.303,20.895 159.566,20.895 159.566,9.184 
		169.099,20.66 172.659,20.66 172.659,1.571 	"/>
</g>
</svg>
