<?xml version="1.0" encoding="utf-8"?>
<!-- Generator: Adobe Illustrator 25.2.1, SVG Export Plug-In . SVG Version: 6.00 Build 0)  -->
<svg version="1.1" id="Layer_1" xmlns="http://www.w3.org/2000/svg" xmlns:xlink="http://www.w3.org/1999/xlink" x="0px" y="0px"
	 viewBox="0 0 283.5 283.5" style="enable-background:new 0 0 283.5 283.5;" xml:space="preserve">
<style type="text/css">
	.st0{fill:#FFFFFF;}
</style>
<rect class="st0" width="283.5" height="283.5"/>
<path d="M175.8,100.2c-14.3,0-26.4,6-34.1,15.7c-7.6-9.7-19.8-15.7-34.1-15.7c-24.6,0-42.7,17.6-42.7,41.6s18.2,41.6,42.7,41.6
	c14.3,0,26.4-6,34.1-15.7c7.6,9.7,19.8,15.7,34.1,15.7c24.6,0,42.7-17.6,42.7-41.6S200.4,100.2,175.8,100.2z M107.7,167.4
	c-14.4,0-25-10.8-25-25.6c0-15,10.7-25.6,25-25.6c14.4,0,25.1,10.7,25.1,25.6C132.7,156.6,122,167.4,107.7,167.4z M175.8,167.4
	c-14.4,0-25.1-10.8-25.1-25.6c0-15,10.7-25.6,25.1-25.6s25.1,10.7,25.1,25.6C200.9,156.6,190.2,167.4,175.8,167.4z"/>
</svg>
