<?xml version="1.0" encoding="utf-8"?>
<!-- Generator: Adobe Illustrator 25.2.1, SVG Export Plug-In . SVG Version: 6.00 Build 0)  -->
<svg version="1.1" id="Layer_1" xmlns="http://www.w3.org/2000/svg" xmlns:xlink="http://www.w3.org/1999/xlink" x="0px" y="0px"
	 viewBox="0 0 481.89 113.386" style="enable-background:new 0 0 481.89 113.386;" xml:space="preserve">
<style type="text/css">
	.st0{fill:#43B649;}
	.st1{fill:#231F20;}
</style>
<g>
	<g>
		<g>
			<polygon class="st0" points="54.928,50.124 54.928,58.685 49.061,50.124 42.723,50.124 42.723,67.099 49.041,67.099 
				49.041,58.531 54.906,67.099 61.246,67.099 61.246,50.124 			"/>
			<path class="st0" d="M129.052,60.749c2.244-0.626,3.693-2.247,3.693-4.849c0-4.373-3.469-5.776-8.042-5.776
				c-2.22,0-7.895,0-7.895,0V67.1h6.319v-5.303L126.9,67.1h7.262L129.052,60.749z M125.948,57.29
				c-0.369,0.3-1.079,0.447-1.667,0.447h-1.355v-3.345h1.329c0.639,0,1.365,0.154,1.718,0.458c0.351,0.307,0.516,0.72,0.516,1.247
				C126.49,56.596,126.317,56.995,125.948,57.29z"/>
			<path class="st0" d="M101.409,50.124h12.809v4.42h-6.552v1.997h6.037v4.175h-6.037v1.964h6.751v4.421h-13.008V50.124z"/>
			<path class="st0" d="M76.455,50.124h-7.206L62.601,67.1h7.027l0.614-2.219h5.221l0.615,2.219h7.026L76.455,50.124z
				 M71.279,60.957l1.485-5.599h0.175l1.487,5.599H71.279z"/>
			<polygon class="st0" points="93.163,50.124 90.048,60.356 89.873,60.356 86.761,50.124 79.87,50.124 86.977,67.099 
				92.943,67.099 100.054,50.124 			"/>
		</g>
	</g>
	<g>
		<path class="st1" d="M181.965,67.069V70.5h-34.559v-3.432H181.965z M164.686,52.118c-0.408,0.94-2.084,2.37-4.82,4.126
			c-2.37,1.511-4.984,3.104-8.374,4.984l-2.002-3.186c3.268-1.797,5.841-3.268,8.578-5.107c3.718-2.533,4.575-4.289,4.575-8.292
			v-4.126h4.085v4.126c0,4.003,0.613,5.678,5.025,8.578c2.574,1.675,4.943,3.023,8.17,4.78l-1.961,3.145
			c-3.023-1.716-6.005-3.432-8.455-4.984c-2.655-1.675-4.33-3.105-4.78-4.045L164.686,52.118L164.686,52.118z"/>
		<path class="st1" d="M186.46,65.598V41.251h17.811v24.346H186.46z M190.464,62.126h9.804V44.724h-9.804V62.126z M219.876,54.978
			h-5.8v20.547h-4.045V37.861h4.045v13.603h5.8V54.978z"/>
		<path class="st1" d="M256.315,67.069V70.5h-34.559v-3.432H256.315z M251.862,60.86h-25.45V40.68h24.878v3.432h-20.834v4.983
			h20.547v3.35h-20.547v4.984h21.406V60.86z"/>
		<path class="st1" d="M293.49,67.069V70.5h-34.56v-3.432H293.49z M276.21,52.118c-0.408,0.94-2.083,2.37-4.821,4.126
			c-2.37,1.511-4.984,3.104-8.374,4.984l-2.002-3.186c3.268-1.797,5.842-3.268,8.579-5.107c3.717-2.533,4.575-4.289,4.575-8.292
			v-4.126h4.085v4.126c0,4.003,0.613,5.678,5.025,8.578c2.574,1.675,4.943,3.023,8.17,4.78l-1.961,3.145
			c-3.023-1.716-6.005-3.432-8.455-4.984c-2.655-1.675-4.33-3.105-4.78-4.045L276.21,52.118L276.21,52.118z"/>
		<path class="st1" d="M325.354,52.322h-20.588v4.943h21.446v3.432h-10.825v6.372h15.278V70.5h-34.56v-3.432h15.278v-6.372h-10.621
			V40.598h24.878v3.432h-20.875v4.943h20.588V52.322z"/>
		<path class="st1" d="M360.731,75.525V54.65h-7.271v0.94c0,7.189-3.962,10.866-9.477,10.866c-5.516,0-9.478-3.677-9.478-10.866
			v-4.249c0-7.23,3.962-10.907,9.478-10.907c5.433,0,9.395,3.636,9.477,10.662h7.271V37.861h4.045v37.664H360.731z M349.579,55.018
			v-3.105c0-5.759-2.655-7.803-5.596-7.803c-2.942,0-5.597,2.043-5.597,7.803v3.105c0,5.76,2.655,7.802,5.597,7.802
			C346.924,62.82,349.579,60.778,349.579,55.018z"/>
		<path class="st1" d="M379.809,52.608c-0.163,0.654-1.062,1.674-1.757,2.451c-1.062,1.226-3.391,3.432-5.678,5.432l-2.574-2.736
			c2.533-2.247,4.903-4.453,5.964-5.801c1.756-2.165,2.001-3.513,2.001-6.087v-6.046h3.922v5.801c0,2.451,0.286,4.126,2.166,6.291
			c1.307,1.511,3.186,3.105,5.147,4.698l-2.533,2.696c-1.838-1.552-3.473-3.104-4.575-4.207c-1.022-1.022-1.838-1.879-2.043-2.492
			H379.809z M382.016,71.603h21.365v3.513h-25.409V62.697h4.045L382.016,71.603L382.016,71.603z M395.292,63.719h-3.84V49.83H386.1
			v-3.473h5.352v-8.006h3.84V63.719z M398.6,37.861h3.881v26.757H398.6V37.861z"/>
		<path class="st1" d="M414.329,44.356v7.23h11.806v3.432h-11.806v7.721h3.554c4.943,0,9.151-0.245,12.909-0.817l0.409,3.432
			c-4.412,0.695-8.416,0.858-14.298,0.858h-6.577V40.884h17.238v3.473L414.329,44.356L414.329,44.356z M435.121,75.525V55.018
			h-6.822v-3.513h6.822V37.861h4.045v37.664H435.121z"/>
	</g>
</g>
</svg>
